<mxfile host="app.diagrams.net" modified="2023-04-26T01:44:51.914Z" agent="Mozilla/5.0 (Windows NT 10.0; Win64; x64) AppleWebKit/537.36 (KHTML, like Gecko) Chrome/112.0.0.0 Safari/537.36" version="21.2.2" etag="n1F-OZA3vyN_pcYAaFM3" type="github">
  <diagram name="PÃ¡gina-1" id="5RHbiF4PLLRhooEWSwFl">
    <mxGraphModel>
      <root>
        <mxCell id="0" />
        <mxCell id="1" parent="0" />
      </root>
    </mxGraphModel>
  </diagram>
</mxfile>
